<?xml version="1.0" encoding="UTF-8"?>
<svg id="Layer_1" xmlns="http://www.w3.org/2000/svg" version="1.1" viewBox="0 0 706.24 64">
  <!-- Generator: Adobe Illustrator 30.2.0, SVG Export Plug-In . SVG Version: 2.1.1 Build 12)  -->
  <path d="M603.24,0h103v64h-16.99l-.48-46.72c-.02-1.88-2.62-5-4.41-5l-23.79.05-.35,51.67h-16.26c-.38-1.59-.73-3.88-.73-5.94l-.02-45.75-23.1-.05c-2.85,0-5.09,2.77-5.14,5.62v42.25c.01,1-.44,3.09-.62,3.88h-16.21l-.27-57.08c-.01-2.59,3.77-5.34,5.35-6.92h.02Z"/>
  <path d="M348.24,0c1.04,5.47-2.87,11.64-9.5,11.71l-36.49.43c-4.41.05-7.41,2.5-7.55,6.5-.13,3.58,2.39,6.91,6.78,6.98l35.44.54c11.61.18,18.82,8.96,18.59,19.82-.27,12.39-8.87,15.4-17.27,18.03h-59.99c-.38-2.48.13-6.5,1.81-8.43,1.29-1.49,4.94-3.36,7.32-3.38l43.41-.43c4.12-.04,7.6-3.6,7.21-7.2-.26-2.41-3.6-6.11-7.17-6.18l-36.04-.71c-10.82-.21-17.45-8.32-17.13-18.67.38-12.22,6.48-15.71,15.58-19h55Z"/>
  <path d="M579.07,64h-52.83l-4.59-1.81c-2.82-1.12-5.36-5.62-5.37-9.21l-.04-51.87,17.2.02.1,50.59,38.66.04.05-50.43,16.95-.19.04,49.88c0,7.13-3.86,11.26-10.18,13v-.02Z"/>
  <path d="M452.24,0c.6,1.95.94,4.47.98,6.9l.26,18.02,38.16.06.37-19.12c.04-2,.53-4.33,1.23-5.86h15c.36,1.01,1.12,3.61,1.1,4.79l-.3,21.99c-.08,6.09-4.84,10.22-10.78,10.32l-16.87.27-.62,26.63h-16.3l-.63-26.58-17.64-.35c-5.66-.11-9.79-4.41-9.83-10.2l-.18-22.86c0-1.04.79-3.4,1.06-4h15-.01Z"/>
  <path d="M69.22,64h-36.98c-7.23,0-15.92-4.08-21.62-7.95C2.53,50.54.28,41.99.02,33.01-.31,21.71,4.05,11.42,14.55,6.12,19.2,3.77,25.66,1.14,31.11,1.11l38.45-.19-.02,11.47-35.39.56c-5.21.08-11.54,2.02-14.1,6.7-4,7.31-3.89,16.53-.23,24.02,2.29,4.68,8.47,7.82,13.78,7.87l35.83.32c.24,4.5.18,8.38-.21,12.15h0Z"/>
  <path d="M430.24,0c.37,3.78.41,7.5.21,11.95l-29.4.08-.29,51.97h-16.62l-.4-51.61-19.63-.15c-2.93-.02-7.23-1.09-8.51-3.08-1.75-2.71-1.88-6.34-1.35-9.16h76,0Z"/>
  <path d="M136.35,64h-57.77l-.33-38.66,58.31-.05c.41,4.53.43,7.78.04,12.13l-40.85.07-.21,14.19,41.01.12c.55,4.43.53,8.36-.19,12.2h0Z"/>
  <path d="M269.35,64h-57.77l-.33-38.66,58.31-.05c.41,4.53.43,7.78.04,12.13l-40.85.07-.21,14.19,41.01.12c.55,4.43.53,8.36-.19,12.2h0Z"/>
  <path d="M204.02,64h-58.25l-.29-62.85,17.14-.15.12,50.98,41.35.06c.38,4.54.36,8.2-.07,11.96h0Z"/>
  <path d="M136.73,12.71l-50.36.04c-2.29,0-5.81-1.3-6.8-2.89-1.3-2.09-1.5-6.13-.94-8.86h58.23l-.13,11.7h0Z"/>
  <path d="M269.73,12.71l-50.36.04c-2.3,0-5.82-1.3-6.8-2.88-1.33-2.17-1.5-6.09-.95-8.87h58.23l-.13,11.71h.01Z"/>
</svg>